<?xml version="1.0" standalone="no"?>
<!DOCTYPE svg PUBLIC "-//W3C//DTD SVG 20010904//EN"
 "http://www.w3.org/TR/2001/REC-SVG-20010904/DTD/svg10.dtd">
<svg version="1.0" xmlns="http://www.w3.org/2000/svg"
 width="680.000000pt" height="446.000000pt" viewBox="0 0 680.000000 446.000000"
 preserveAspectRatio="xMidYMid meet">

<g transform="translate(0.000000,446.000000) scale(0.100000,-0.100000)"
fill="#000000" stroke="none">
<path d="M2373 3543 l-73 -118 0 -128 0 -129 29 -29 c25 -24 37 -29 80 -29 42
0 56 5 83 29 l33 29 5 144 5 143 53 103 52 102 -97 0 -98 0 -72 -117z"/>
<path d="M2850 3657 c0 -2 -18 -55 -40 -120 -38 -111 -40 -121 -40 -242 0
-126 0 -127 29 -156 25 -24 37 -29 80 -29 42 0 56 5 83 29 l33 29 7 164 c4
103 13 193 26 246 l19 82 -99 0 c-54 0 -98 -1 -98 -3z"/>
<path d="M3251 3547 c-14 -145 -14 -352 0 -380 27 -53 102 -74 164 -45 57 26
64 85 48 401 l-6 137 -97 0 -97 0 -12 -113z"/>
<path d="M3670 3653 c0 -4 9 -54 20 -111 14 -70 20 -144 20 -232 0 -123 1
-130 26 -159 49 -58 143 -59 184 -2 17 25 20 44 20 148 0 109 -3 127 -38 238
l-38 120 -97 3 c-53 1 -97 -1 -97 -5z"/>
<path d="M4080 3656 c0 -2 23 -52 50 -111 l50 -107 0 -120 c0 -166 25 -208
123 -208 40 0 53 5 78 29 l29 29 0 129 0 128 -45 75 c-24 41 -56 94 -69 118
l-26 42 -95 0 c-52 0 -95 -2 -95 -4z"/>
<path d="M2498 3071 l-28 -16 0 -354 0 -354 -74 6 c-81 6 -110 17 -126 47 -15
27 3 90 36 130 35 41 19 38 -41 -8 -127 -96 -125 -219 3 -269 39 -15 76 -18
227 -18 235 1 416 31 790 131 384 104 597 179 881 310 l74 34 0 172 0 173 -28
16 c-27 15 -31 15 -63 -2 -45 -24 -124 -24 -169 0 -34 18 -36 18 -70 0 -44
-24 -124 -24 -169 0 -32 17 -35 17 -69 -1 -48 -24 -128 -24 -167 1 -30 18 -32
18 -65 0 -21 -11 -55 -19 -85 -19 -30 0 -64 8 -85 19 -33 18 -35 18 -65 0 -41
-25 -129 -25 -171 0 -29 18 -31 18 -65 0 -45 -24 -124 -24 -169 0 -34 18 -36
18 -70 0 -45 -24 -120 -24 -168 -1 -34 17 -39 18 -64 3z"/>
<path d="M4431 2917 c117 -83 30 -200 -261 -351 -360 -186 -972 -365 -1496
-436 -88 -12 -170 -23 -182 -26 -23 -5 -24 -7 -20 -105 2 -83 6 -103 21 -114
31 -23 179 -26 937 -23 825 3 778 -1 799 75 6 22 11 144 11 285 0 237 1 247
20 253 35 11 193 120 238 164 49 48 81 110 82 157 0 62 -67 125 -150 140 l-35
6 36 -25z"/>
<path d="M4092 1309 l3 -191 29 -24 c23 -20 37 -24 75 -22 48 3 63 23 29 39
-10 5 -26 13 -35 17 -26 13 -31 43 -32 215 l-1 157 -36 0 -35 0 3 -191z"/>
<path d="M1823 1466 c-17 -8 -36 -23 -42 -35 -12 -21 -15 -109 -5 -136 12 -30
60 -45 143 -45 71 0 82 -2 95 -22 9 -12 16 -34 16 -48 0 -14 -7 -36 -16 -48
-14 -20 -23 -22 -125 -22 -85 0 -109 -3 -109 -14 0 -27 200 -37 249 -11 35 18
41 32 41 100 0 85 -18 99 -132 103 -51 2 -99 9 -105 14 -8 6 -13 33 -13 64 0
71 14 79 137 71 60 -4 94 -3 99 4 12 20 -11 27 -106 33 -72 5 -103 3 -127 -8z"/>
<path d="M3455 1471 c-86 -22 -110 -66 -110 -201 0 -150 32 -190 161 -198 105
-7 155 14 185 74 18 39 21 58 17 143 -4 104 -16 136 -62 166 -27 18 -146 28
-191 16z m152 -75 c27 -23 28 -27 28 -121 0 -94 -1 -97 -28 -121 -36 -31 -122
-34 -157 -6 -27 22 -41 94 -33 167 10 86 29 103 115 104 36 1 54 -5 75 -23z"/>
<path d="M4270 1430 c0 -28 2 -30 40 -30 38 0 40 2 40 30 0 28 -2 30 -40 30
-38 0 -40 -2 -40 -30z"/>
<path d="M2177 1443 c-4 -3 -7 -18 -7 -32 0 -35 -10 -48 -40 -52 -34 -5 -32
-33 3 -37 27 -3 27 -4 27 -83 0 -126 28 -169 111 -169 44 0 37 27 -10 40 -21
5 -42 17 -45 26 -3 9 -6 53 -6 99 l0 84 47 3 c35 2 49 7 51 20 3 14 -6 17 -45
20 l-48 3 -3 43 c-3 39 -17 53 -35 35z"/>
<path d="M2431 1360 c-60 -14 -76 -40 -79 -134 -4 -80 -3 -85 25 -116 25 -28
36 -33 94 -37 79 -7 133 9 157 45 25 39 23 162 -4 199 -34 46 -109 63 -193 43z
m147 -53 c10 -11 17 -40 20 -81 4 -59 2 -67 -21 -90 -21 -21 -36 -26 -77 -26
-64 0 -85 11 -99 51 -23 65 -5 142 37 158 38 15 120 7 140 -12z"/>
<path d="M2820 1356 c-19 -7 -43 -17 -52 -21 -12 -5 -20 -2 -24 9 -3 9 -15 16
-25 16 -18 0 -19 -9 -19 -145 l0 -145 25 0 25 0 0 115 0 114 56 17 c31 9 69
14 85 12 25 -4 29 -1 29 19 0 19 -5 23 -32 23 -18 -1 -49 -7 -68 -14z"/>
<path d="M3031 1360 c-18 -4 -39 -14 -47 -22 -18 -18 -34 -107 -28 -154 14
-96 37 -115 142 -113 82 2 124 10 130 27 3 9 -21 12 -97 12 -96 0 -101 1 -117
25 -8 13 -14 32 -12 42 3 16 16 18 98 21 112 3 130 14 130 77 0 22 -6 49 -13
59 -22 30 -113 43 -186 26z m146 -56 c8 -10 12 -28 11 -39 -3 -18 -12 -20 -95
-23 -80 -2 -93 0 -93 13 0 26 20 55 43 65 36 16 118 5 134 -16z"/>
<path d="M3867 1351 c-32 -16 -39 -17 -44 -5 -3 8 -18 14 -34 14 -37 0 -41
-14 -37 -165 l3 -120 38 -3 37 -3 0 110 c0 121 0 122 68 135 65 12 72 0 72
-130 l0 -115 38 3 37 3 3 95 c2 52 -2 112 -8 132 -19 65 -98 87 -173 49z"/>
<path d="M4511 1353 c-32 -11 -46 -13 -49 -4 -2 6 -17 11 -33 11 l-29 0 0
-145 0 -145 35 0 34 0 3 112 3 112 45 13 c31 10 52 11 67 4 21 -10 23 -18 25
-123 l3 -113 38 -3 39 -3 -4 125 c-3 112 -5 128 -24 147 -28 28 -96 33 -153
12z"/>
<path d="M4803 1359 c-17 -5 -41 -22 -53 -37 -19 -24 -21 -37 -18 -115 3 -83
5 -90 31 -113 25 -21 37 -24 110 -23 103 1 131 9 135 36 3 20 0 21 -77 16 -88
-6 -131 9 -131 47 0 18 7 20 78 20 106 0 126 12 130 75 2 30 -2 57 -10 68 -24
32 -126 46 -195 26z m132 -84 c0 -30 0 -30 -67 -33 -61 -3 -68 -1 -68 16 0 43
42 64 105 52 25 -5 30 -10 30 -35z"/>
<path d="M4270 1214 l0 -145 38 3 37 3 3 143 3 142 -41 0 -40 0 0 -146z"/>
<path d="M2780 901 c0 -47 4 -81 10 -81 6 0 10 31 10 74 0 41 -4 78 -10 81 -6
4 -10 -23 -10 -74z"/>
<path d="M3880 900 c0 -52 4 -79 10 -75 6 3 10 26 10 51 0 36 3 44 19 44 26 0
39 -19 44 -65 3 -28 4 -24 3 15 -1 54 -1 55 -33 58 -25 2 -33 8 -33 22 0 10
-4 22 -10 25 -6 4 -10 -23 -10 -75z"/>
<path d="M2423 944 c-6 -13 -7 -24 -2 -24 5 0 9 -20 9 -44 0 -31 5 -46 16 -50
23 -9 34 -7 34 4 0 6 -7 10 -15 10 -23 0 -21 77 3 83 16 4 16 5 0 6 -10 0 -18
7 -18 15 0 25 -15 25 -27 0z"/>
<path d="M2669 927 c-46 -23 -34 -97 17 -97 12 0 25 -4 28 -9 9 -14 -22 -34
-44 -28 -11 3 -20 1 -20 -5 0 -5 17 -8 38 -6 l37 3 3 67 c2 57 0 68 -16 77
-12 7 -26 6 -43 -2z m46 -47 c0 -31 -3 -35 -25 -35 -19 0 -26 6 -28 23 -5 36
5 54 30 50 19 -2 23 -9 23 -38z"/>
<path d="M2544 922 c34 -8 47 -32 18 -32 -35 0 -52 -11 -52 -36 0 -27 34 -41
70 -29 18 6 21 13 18 53 l-3 47 -40 2 c-34 1 -36 0 -11 -5z m39 -48 c12 -12
-6 -34 -29 -34 -23 0 -32 18 -17 33 8 9 38 9 46 1z"/>
<path d="M2850 875 c0 -30 5 -55 10 -55 6 0 10 25 10 55 0 30 -4 55 -10 55 -5
0 -10 -25 -10 -55z"/>
<path d="M2922 873 l1 -58 6 50 c5 45 9 50 33 53 29 3 32 -2 42 -73 2 -16 3
-5 2 25 l-1 55 -42 3 -43 3 2 -58z"/>
<path d="M3067 923 c-12 -11 -8 -78 5 -91 15 -15 64 -16 73 -2 4 6 -8 10 -29
10 -25 0 -36 4 -36 15 0 11 11 15 40 15 41 0 47 8 30 41 -11 19 -68 28 -83 12z
m71 -25 c3 -14 -3 -18 -27 -18 -29 0 -41 17 -24 34 13 13 48 1 51 -16z"/>
<path d="M3279 908 c-17 -38 3 -78 41 -78 19 0 30 -5 30 -14 0 -16 -34 -31
-50 -21 -5 3 -10 1 -10 -4 0 -16 56 -13 69 3 7 9 11 38 9 73 l-3 58 -37 3
c-32 3 -40 -1 -49 -20z m71 -28 c0 -36 -3 -40 -24 -40 -27 0 -41 27 -31 60 4
13 15 20 31 20 21 0 24 -4 24 -40z"/>
<path d="M3408 904 c-10 -21 -9 -31 3 -52 29 -52 99 -33 99 27 0 36 -17 51
-57 51 -26 0 -36 -6 -45 -26z m77 -24 c0 -32 -2 -35 -30 -35 -24 0 -31 5 -33
23 -5 30 16 54 42 50 17 -2 21 -10 21 -38z"/>
<path d="M3550 904 c-15 -38 7 -78 44 -82 16 -2 33 1 39 7 8 8 0 11 -26 11
-26 0 -37 4 -37 15 0 11 11 15 40 15 41 0 47 8 30 41 -8 13 -21 19 -46 19 -28
0 -36 -5 -44 -26z m69 3 c13 -17 5 -27 -24 -27 -12 0 -25 3 -28 7 -9 8 12 33
28 33 7 0 18 -6 24 -13z"/>
<path d="M3687 923 c-16 -15 -5 -39 23 -50 39 -15 39 -33 -1 -33 -17 0 -28 -4
-24 -10 11 -17 54 -11 65 9 11 22 -9 51 -36 51 -26 0 -14 29 14 33 26 4 26 4
-4 6 -17 0 -34 -2 -37 -6z"/>
<path d="M4022 918 c-18 -18 -14 -63 6 -81 20 -18 67 -23 77 -8 3 6 -11 11
-32 13 -52 4 -56 28 -4 28 37 0 41 3 41 24 0 34 -61 51 -88 24z m66 -20 c3
-14 -3 -18 -27 -18 -29 0 -41 17 -24 34 13 13 48 1 51 -16z"/>
<path d="M4157 923 c-11 -10 -8 -103 3 -103 6 0 10 22 10 49 0 39 4 51 18 54
14 4 13 5 -4 6 -11 0 -24 -2 -27 -6z"/>
<path d="M4242 918 c-17 -17 -15 -64 4 -82 17 -17 69 -22 79 -7 3 6 -11 11
-32 13 -52 4 -56 28 -4 28 37 0 41 3 41 24 0 34 -61 51 -88 24z m66 -20 c3
-14 -3 -18 -27 -18 -29 0 -41 17 -24 34 13 13 48 1 51 -16z"/>
</g>
</svg>
